<svg width="213" height="213" viewBox="0 0 213 213" fill="none" xmlns="http://www.w3.org/2000/svg">
<g clip-path="url(#clip0_34_5271)">
<path d="M244.341 107.564L213.393 76.6162L182.447 107.564L213.393 138.512L244.341 107.564ZM213.393 69.8389L251.119 107.564L213.393 145.29L175.668 107.564L213.393 69.8389Z" fill="#D69538"/>
<path d="M213.128 114.767C208.004 114.767 207.8 120.915 205.956 123.373C207.595 125.627 210.259 124.807 210.259 124.807C210.873 128.085 213.128 128.905 213.128 128.905C213.128 128.905 215.381 128.085 215.996 124.807C215.996 124.807 218.66 125.627 220.299 123.373C218.455 120.915 218.249 114.767 213.128 114.767Z" fill="#54B9B2"/>
<path d="M197.585 100.127C195.332 101.765 196.15 104.429 196.15 104.429C192.873 105.043 192.052 107.297 192.052 107.297C192.052 107.297 192.873 109.551 196.15 110.167C196.15 110.167 195.332 112.831 197.585 114.471C200.045 112.625 206.192 112.42 206.192 107.297C206.192 102.175 200.045 101.971 197.585 100.127Z" fill="#54B9B2"/>
<path d="M210.792 90.3214C210.792 90.3214 208.128 89.5027 206.489 91.756C208.333 94.2147 208.539 100.361 213.661 100.361C218.783 100.361 218.988 94.2147 220.832 91.756C219.193 89.5027 216.529 90.3214 216.529 90.3214C215.915 87.0427 213.661 86.224 213.661 86.224C213.661 86.224 211.407 87.0427 210.792 90.3214Z" fill="#54B9B2"/>
<path d="M213.393 112.367C216.046 112.367 218.194 110.216 218.194 107.564C218.194 104.912 216.046 102.763 213.393 102.763C210.742 102.763 208.592 104.912 208.592 107.564C208.592 110.216 210.742 112.367 213.393 112.367Z" fill="#E9422E"/>
<path d="M269.757 0.889392L253.333 -15.5346V-38.6666H229.844L213.42 -55.0906L196.996 -38.6666H174.667V-15.5346L158.243 0.889392L174.667 17.3134V40.0001H196.996L213.42 56.4241L229.844 40.0001H253.333V17.3134L269.757 0.889392ZM275.579 0.889392L257.333 19.1361V45.3334H231.665L213.42 63.5801L195.173 45.3334H169.333V19.1361L151.088 0.889392L169.333 -17.3559V-42.6666H195.173L213.42 -60.9119L231.665 -42.6666H257.333V-17.3559L275.579 0.889392Z" fill="#54B9B2"/>
<path d="M256.781 0.889293L243.999 -11.892V-30.6667H226.201L213.419 -43.448L200.637 -30.6667H182.666V-11.892L169.885 0.889293L182.666 13.6707V30.6666H200.637L213.419 43.4493L226.201 30.6666H243.999V13.6707L256.781 0.889293ZM262.603 0.889293L247.999 15.492V36H228.022L213.419 50.604L198.817 36H178.666V15.492L164.063 0.889293L178.666 -13.7147V-33.3334H198.817L213.419 -47.9373L228.022 -33.3334H247.999V-13.7147L262.603 0.889293Z" fill="#54B9B2"/>
<path d="M243.256 0.95775L239.74 -2.40228L235.584 -0.980922C235.635 -0.372922 235.667 0.240388 235.667 0.861721C235.667 1.54705 235.632 2.22442 235.571 2.89375L239.748 4.30039L243.256 0.95775ZM230.333 15.2991C229.499 16.2778 228.584 17.1858 227.593 18.0071L229.572 21.9911L234.415 22.1071L234.305 17.2458L230.333 15.2991ZM215.12 23.0604C214.549 23.1058 213.975 23.1351 213.393 23.1351C212.689 23.1351 211.992 23.0977 211.303 23.0337L209.867 27.3057L213.208 30.8124L216.569 27.2964L215.12 23.0604ZM198.924 17.7738C197.968 16.9551 197.08 16.0591 196.275 15.0924L192.175 17.1284L192.059 21.9711L196.92 21.8617L198.924 17.7738ZM191.199 2.6444C191.151 2.05507 191.121 1.46172 191.121 0.861721C191.121 0.195054 191.156 -0.462287 191.213 -1.11295L186.86 -2.57825L183.355 0.765757L186.869 4.12572L191.199 2.6444ZM196.401 -13.5156C197.215 -14.4743 198.107 -15.3663 199.069 -16.1769L197.037 -20.2689L192.195 -20.3836L192.304 -15.5223L196.401 -13.5156ZM211.496 -21.3249C212.121 -21.3783 212.753 -21.413 213.393 -21.413C214.04 -21.413 214.677 -21.3782 215.309 -21.3236L216.744 -25.5836L213.401 -29.0889L210.04 -25.5743L211.496 -21.3249ZM227.74 -16.1596C228.72 -15.3289 229.632 -14.4169 230.459 -13.4316L234.435 -15.4062L234.551 -20.249L229.689 -20.1383L227.74 -16.1596ZM231.932 0.861721C231.932 -9.36094 223.616 -17.6769 213.393 -17.6769C203.172 -17.6769 194.855 -9.36094 194.855 0.861721C194.855 11.0844 203.172 19.4004 213.393 19.4004C223.616 19.4004 231.932 11.0844 231.932 0.861721ZM249.051 0.961721L240.748 8.87507L234.845 6.8431C234.336 8.6631 233.604 10.387 232.677 11.987L238.251 14.7257L238.511 26.2084L227.043 25.9324L224.285 20.2804C222.675 21.1857 220.945 21.899 219.121 22.3844L221.14 28.3044L213.204 36.6084L205.291 28.3044L207.357 22.2964C205.545 21.7858 203.828 21.051 202.233 20.123L199.44 25.8071L187.957 26.0671L188.233 14.5991L193.996 11.787C193.089 10.1844 192.375 8.4591 191.887 6.6431L185.861 8.69772L177.559 0.761721L185.861 -7.15293L191.928 -5.06627C192.429 -6.87827 193.155 -8.59957 194.072 -10.1956L188.359 -13.0036L188.099 -24.4863L199.567 -24.2116L202.364 -18.4769C203.964 -19.3929 205.688 -20.1156 207.503 -20.6156L205.468 -26.5823L213.405 -34.885L221.319 -26.5823L219.267 -20.6209C221.087 -20.1222 222.812 -19.3983 224.416 -18.4823L227.169 -24.085L238.652 -24.3449L238.377 -12.877L232.753 -10.1329C233.668 -8.52761 234.389 -6.79825 234.887 -4.97558L240.748 -6.97428L249.051 0.961721Z" fill="#E9422E"/>
<path d="M227.36 0.641602C227.36 4.51094 224.165 7.94961 220.297 7.94961L220 7.94427V7.96829C220 11.8363 216.977 14.6963 213.108 14.6963C209.24 14.6963 206.217 11.279 206.217 7.40964L206.221 6.66693H206.199C202.329 6.66693 199.263 4.08958 199.263 0.220248C199.263 -3.65042 202.472 -6.22637 206.341 -6.22637L206.667 -6.22239V-6.24505C206.667 -10.1157 209.661 -13.4024 213.529 -13.4024C217.4 -13.4024 220.393 -10.4171 220.393 -6.54642L220.388 -6.6664H220.412C224.281 -6.6664 227.36 -3.22773 227.36 0.641602Z" fill="#D69538"/>
<path d="M152.475 41.172C154.487 40.7947 154.174 38.2187 154.174 38.2187C150.527 40.1054 147.45 37.4053 147.45 37.4053C149.085 37.28 149.282 36.092 149.282 36.092C147.721 35.7987 146.125 35.2493 144.533 34.5253C149.967 36.144 153.499 34.164 155.502 31.224C159.01 26.0787 154.245 22.1693 151.73 19.6533C149.215 17.1387 152.077 13.8387 152.077 13.8387C152.077 13.8387 150.85 12.0467 149.058 12.8947C147.266 13.744 147.706 16.3854 147.706 16.3854C147.706 16.3854 145.773 12.3134 142.881 15.2067C139.989 18.0987 145.317 19.78 145.317 19.78C143.871 19.6867 142.846 20.6787 142.739 21.668C142.503 23.852 144.311 24.308 144.311 24.308C146.826 19.0267 153.09 23.9947 152.931 27.688C152.858 29.3654 152.021 31.7653 148.209 32.984C143.494 34.4907 137.887 29.2281 133.206 24.9761L130.377 27.8053C134.63 32.4867 139.703 38.2827 138.195 42.9973C136.977 46.8093 134.578 47.6454 132.899 47.7187C129.206 47.8774 124.237 41.6147 129.519 39.0987C129.519 39.0987 129.065 37.292 126.879 37.528C125.891 37.6347 124.898 38.6587 124.993 40.1054C124.993 40.1054 123.53 35.4774 120.989 37.1934L119.897 38.284C118.102 40.832 121.597 42.4947 121.597 42.4947C121.597 42.4947 118.957 42.0547 118.107 43.8454C117.258 45.6387 119.05 46.864 119.05 46.864C119.05 46.864 122.351 44.004 124.866 46.5187C127.382 49.032 131.291 53.7974 136.437 50.2907C139.534 48.1787 141.565 44.3707 139.445 38.428C140.358 40.284 141.049 42.1573 141.393 43.9813C141.393 43.9813 142.582 43.7827 142.707 42.148C142.707 42.148 145.411 45.2214 143.525 48.868C143.525 48.868 146.107 49.172 146.486 47.1613C146.486 47.1613 151.214 53.052 157.385 52.056C158.346 45.92 152.475 41.172 152.475 41.172Z" fill="#859392"/>
<path d="M173.533 88.6456C174.978 88.739 176.005 87.7469 176.11 86.7589C176.346 84.5736 174.538 84.119 174.538 84.119C172.023 89.399 165.759 84.4323 165.918 80.7389C165.991 79.0589 166.829 76.6603 170.639 75.4416C175.355 73.9349 181.15 79.0083 185.831 83.2616L188.662 80.4323C184.409 75.7496 179.147 70.1443 180.653 65.4283C181.871 61.6163 184.271 60.779 185.95 60.707C189.643 60.5483 194.611 66.811 189.33 69.327C189.33 69.327 189.786 71.1336 191.971 70.8976C192.959 70.7923 193.951 69.767 193.857 68.3216C193.857 68.3216 195.539 73.6483 198.431 70.7563C201.323 67.8643 197.251 65.9309 197.251 65.9309C197.251 65.9309 199.893 66.371 200.741 64.579C201.59 62.787 199.799 61.5603 199.799 61.5603C199.799 61.5603 196.498 64.4216 193.983 61.907C191.467 59.3923 187.559 54.627 182.414 58.135C179.474 60.139 177.494 63.6709 179.113 69.1056C178.387 67.5123 177.839 65.9163 177.545 64.355C177.545 64.355 176.357 64.5523 176.233 66.1869C176.233 66.1869 173.533 63.1096 175.419 59.463C175.419 59.463 172.843 59.151 172.466 61.163C172.466 61.163 167.718 55.2923 161.583 56.2536C160.586 62.4243 166.477 67.1523 166.477 67.1523C164.465 67.5296 164.769 70.1109 164.769 70.1109C168.417 68.2256 171.489 70.9296 171.489 70.9296C169.854 71.0563 169.657 72.2443 169.657 72.2443C171.479 72.5883 173.354 73.2803 175.21 74.1936C169.266 72.0723 165.458 74.1043 163.347 77.2016C159.838 82.347 164.605 86.2563 167.119 88.771C169.634 91.2856 166.773 94.5869 166.773 94.5869C166.773 94.5869 167.999 96.3789 169.791 95.5309C171.583 94.6816 171.142 92.0403 171.142 92.0403C171.142 92.0403 172.805 95.5363 175.353 93.7403L176.443 92.6496C178.162 90.1083 173.533 88.6456 173.533 88.6456Z" fill="#859392"/>
<path d="M269.757 213.29L253.333 196.864V173.334H229.844L213.42 156.91L196.996 173.334H174.667V196.864L158.243 213.29L174.667 229.715V252H196.996L213.42 268.424L229.844 252H253.333V229.715L269.757 213.29ZM275.579 213.29L257.333 231.535V257.334H231.665L213.42 275.579L195.173 257.334H169.333V231.535L151.088 213.29L169.333 195.044V169.334H195.173L213.42 151.087L231.665 169.334H257.333V195.044L275.579 213.29Z" fill="#54B9B2"/>
<path d="M256.781 213.289L243.999 200.508V182.667H226.201L213.419 169.885L200.637 182.667H182.666V200.508L169.885 213.289L182.666 226.072V242.667H200.637L213.419 255.448L226.201 242.667H243.999V226.072L256.781 213.289ZM262.603 213.289L247.999 227.892V248H228.022L213.419 262.603L198.817 248H178.666V227.892L164.063 213.289L178.666 198.687V178.667H198.817L213.419 164.063L228.022 178.667H247.999V198.687L262.603 213.289Z" fill="#54B9B2"/>
<path d="M243.256 213.357L239.74 209.997L235.584 211.419C235.635 212.028 235.667 212.641 235.667 213.261C235.667 213.947 235.632 214.624 235.571 215.293L239.748 216.7L243.256 213.357ZM230.333 227.699C229.499 228.677 228.584 229.587 227.593 230.407L229.572 234.391L234.415 234.508L234.305 229.646L230.333 227.699ZM215.12 235.461C214.549 235.505 213.975 235.535 213.393 235.535C212.689 235.535 211.992 235.499 211.303 235.433L209.867 239.704L213.208 243.212L216.569 239.696L215.12 235.461ZM198.924 230.174C197.968 229.355 197.08 228.46 196.275 227.493L192.175 229.529L192.059 234.371L196.92 234.261L198.924 230.174ZM191.199 215.044C191.151 214.455 191.121 213.863 191.121 213.261C191.121 212.595 191.156 211.937 191.213 211.287L186.86 209.823L183.355 213.165L186.869 216.525L191.199 215.044ZM196.401 198.885C197.215 197.924 198.107 197.035 199.069 196.224L197.037 192.131L192.195 192.015L192.304 196.877L196.401 198.885ZM211.496 191.075C212.121 191.021 212.753 190.988 213.393 190.988C214.04 190.988 214.677 191.022 215.309 191.076L216.744 186.817L213.401 183.311L210.04 186.827L211.496 191.075ZM227.74 196.241C228.72 197.071 229.632 197.982 230.459 198.968L234.435 196.995L234.551 192.151L229.689 192.26L227.74 196.241ZM231.932 213.261C231.932 203.039 223.616 194.723 213.393 194.723C203.172 194.723 194.855 203.039 194.855 213.261C194.855 223.483 203.172 231.8 213.393 231.8C223.616 231.8 231.932 223.483 231.932 213.261ZM249.051 213.361L240.748 221.275L234.845 219.244C234.336 221.063 233.604 222.787 232.677 224.388L238.251 227.125L238.511 238.608L227.043 238.333L224.285 232.679C222.675 233.587 220.945 234.299 219.121 234.784L221.14 240.704L213.204 249.007L205.291 240.704L207.357 234.697C205.545 234.187 203.828 233.451 202.233 232.524L199.44 238.207L187.957 238.467L188.233 227L193.996 224.187C193.089 222.584 192.375 220.86 191.887 219.043L185.861 221.097L177.559 213.161L185.861 205.248L191.928 207.333C192.429 205.521 193.155 203.8 194.072 202.204L188.359 199.397L188.099 187.915L199.567 188.189L202.364 193.923C203.964 193.007 205.688 192.284 207.503 191.784L205.468 185.817L213.405 177.515L221.319 185.817L219.267 191.78C221.087 192.277 222.812 193.001 224.416 193.919L227.169 188.315L238.652 188.056L238.377 199.524L232.753 202.267C233.668 203.873 234.389 205.601 234.887 207.425L240.748 205.425L249.051 213.361Z" fill="#E9422E"/>
<path d="M227.36 213.507C227.36 217.378 224.165 220.349 220.297 220.349L220 220.346V220.368C220 224.237 216.977 227.328 213.108 227.328C209.24 227.328 206.217 224.146 206.217 220.276L206.221 220H206.199C202.329 220 199.263 216.956 199.263 213.087C199.263 209.216 202.472 206.172 206.341 206.172L206.667 206.177V206.155C206.667 202.285 209.661 199.232 213.529 199.232C217.4 199.232 220.393 202.449 220.393 206.32L220.388 206.667H220.412C224.281 206.667 227.36 209.639 227.36 213.507Z" fill="#D69538"/>
<path d="M136.437 162.547C131.291 159.039 127.382 163.804 124.866 166.319C122.351 168.833 119.05 165.972 119.05 165.972C119.05 165.972 117.258 167.199 118.107 168.991C118.957 170.781 121.597 170.343 121.597 170.343C121.597 170.343 118.102 172.004 119.897 174.552L120.989 175.644C123.53 177.361 124.993 172.732 124.993 172.732C124.898 174.177 125.891 175.203 126.879 175.309C129.065 175.545 129.519 173.737 129.519 173.737C124.237 171.223 129.206 164.959 132.899 165.117C134.578 165.191 136.977 166.028 138.195 169.839C139.703 174.555 134.63 180.351 130.377 185.031L133.206 187.861C137.887 183.608 143.494 178.347 148.209 179.853C152.021 181.071 152.858 183.471 152.931 185.149C153.09 188.843 146.826 193.811 144.311 188.529C144.311 188.529 142.503 188.985 142.739 191.171C142.846 192.157 143.871 193.151 145.317 193.056C145.317 193.056 139.989 194.739 142.881 197.629C145.773 200.524 147.706 196.451 147.706 196.451C147.706 196.451 147.266 199.092 149.058 199.941C150.85 200.789 152.077 198.999 152.077 198.999C152.077 198.999 149.215 195.697 151.73 193.183C154.245 190.667 159.01 186.759 155.502 181.613C153.499 178.673 149.967 176.693 144.533 178.311C146.125 177.588 147.721 177.037 149.282 176.744C149.282 176.744 149.085 175.557 147.45 175.432C147.45 175.432 150.527 172.732 154.174 174.617C154.174 174.617 154.487 172.043 152.475 171.665C152.475 171.665 158.346 166.917 157.385 160.781C151.214 159.785 146.486 165.676 146.486 165.676C146.107 163.664 143.525 163.968 143.525 163.968C145.411 167.615 142.707 170.688 142.707 170.688C142.582 169.053 141.393 168.855 141.393 168.855C141.049 170.679 140.358 172.553 139.445 174.409C141.565 168.465 139.534 164.659 136.437 162.547Z" fill="#859392"/>
<path d="M166.773 118.251C166.773 118.251 169.634 121.551 167.119 124.067C164.605 126.581 159.838 130.489 163.347 135.636C165.458 138.732 169.266 140.765 175.21 138.644C173.354 139.557 171.479 140.249 169.657 140.592C169.657 140.592 169.854 141.781 171.489 141.907C171.489 141.907 168.417 144.611 164.769 142.725C164.769 142.725 164.465 145.308 166.477 145.685C166.477 145.685 160.586 150.413 161.583 156.584C167.718 157.545 172.466 151.675 172.466 151.675C172.843 153.685 175.419 153.373 175.419 153.373C173.533 149.727 176.233 146.649 176.233 146.649C176.357 148.285 177.545 148.481 177.545 148.481C177.839 146.92 178.387 145.324 179.113 143.732C177.494 149.167 179.474 152.697 182.414 154.701C187.559 158.209 191.467 153.444 193.983 150.929C196.498 148.415 199.799 151.276 199.799 151.276C199.799 151.276 201.59 150.049 200.741 148.259C199.893 146.465 197.251 146.905 197.251 146.905C197.251 146.905 201.323 144.972 198.431 142.08C195.539 139.188 193.857 144.516 193.857 144.516C193.951 143.069 192.959 142.045 191.971 141.939C189.786 141.703 189.33 143.511 189.33 143.511C194.611 146.025 189.643 152.289 185.95 152.131C184.271 152.059 181.871 151.22 180.653 147.408C179.147 142.693 184.409 137.087 188.662 132.405L185.831 129.576C181.15 133.829 175.355 138.903 170.639 137.395C166.829 136.176 165.991 133.777 165.918 132.099C165.759 128.405 172.023 123.436 174.538 128.719C174.538 128.719 176.346 128.263 176.11 126.077C176.005 125.091 174.978 124.097 173.533 124.192C173.533 124.192 178.162 122.729 176.443 120.188L175.353 119.097C172.805 117.301 171.142 120.797 171.142 120.797C171.142 120.797 171.583 118.156 169.791 117.307C167.999 116.459 166.773 118.251 166.773 118.251Z" fill="#859392"/>
<path d="M31.0083 107.564L0.0603493 76.6162L-30.8863 107.564L0.0603493 138.512L31.0083 107.564ZM0.0603493 69.8389L37.7857 107.564L0.0603493 145.29L-37.665 107.564L0.0603493 69.8389Z" fill="#D69538"/>
<path d="M15.8693 115.004C18.1227 113.364 17.3027 110.699 17.3027 110.699C20.5813 110.085 21.4013 107.831 21.4013 107.831C21.4013 107.831 20.5813 105.577 17.3027 104.963C17.3027 104.963 18.1227 102.299 15.8693 100.66C13.4107 102.504 7.2627 102.708 7.2627 107.831C7.2627 112.953 13.4107 113.159 15.8693 115.004Z" fill="#54B9B2"/>
<path d="M-0.204948 114.767C-5.32895 114.767 -5.53295 120.915 -7.37695 123.373C-5.73829 125.627 -3.07428 124.807 -3.07428 124.807C-2.45962 128.085 -0.204948 128.905 -0.204948 128.905C-0.204948 128.905 2.04842 128.085 2.66309 124.807C2.66309 124.807 5.32709 125.627 6.96576 123.373C5.12176 120.915 4.91639 114.767 -0.204948 114.767Z" fill="#54B9B2"/>
<path d="M-2.54108 90.3214C-2.54108 90.3214 -5.20508 89.5027 -6.84375 91.756C-4.99975 94.2147 -4.79441 100.361 0.328256 100.361C5.44959 100.361 5.65496 94.2147 7.49896 91.756C5.86029 89.5027 3.19629 90.3214 3.19629 90.3214C2.58162 87.0427 0.328256 86.224 0.328256 86.224C0.328256 86.224 -1.92641 87.0427 -2.54108 90.3214Z" fill="#54B9B2"/>
<path d="M0.060156 112.367C2.71349 112.367 4.86146 110.216 4.86146 107.564C4.86146 104.912 2.71349 102.763 0.060156 102.763C-2.59051 102.763 -4.74121 104.912 -4.74121 107.564C-4.74121 110.216 -2.59051 112.367 0.060156 112.367Z" fill="#E9422E"/>
<path d="M138.246 0.861587L107.298 -30.0864L76.3509 0.861587L107.298 31.8096L138.246 0.861587ZM107.298 -36.8637L145.023 0.861587L107.298 38.5869L69.5723 0.861587L107.298 -36.8637Z" fill="#D69538"/>
<path d="M123.107 8.29883C125.36 6.66149 124.54 3.99616 124.54 3.99616C127.819 3.38149 128.639 1.12812 128.639 1.12812C128.639 1.12812 127.819 -1.12651 124.54 -1.73984C124.54 -1.73984 125.36 -4.40521 123.107 -6.04388C120.647 -4.19855 114.5 -3.99454 114.5 1.12812C114.5 6.25079 120.647 6.45483 123.107 8.29883Z" fill="#54B9B2"/>
<path d="M107.03 8.06299C101.908 8.06299 101.704 14.2096 99.8584 16.6696C101.497 18.923 104.162 18.1043 104.162 18.1043C104.776 21.383 107.03 22.2017 107.03 22.2017C107.03 22.2017 109.284 21.383 109.898 18.1043C109.898 18.1043 112.562 18.923 114.202 16.6696C112.358 14.2096 112.153 8.06299 107.03 8.06299Z" fill="#54B9B2"/>
<path d="M91.489 -6.57708C89.2357 -4.93842 90.0544 -2.27441 90.0544 -2.27441C86.7757 -1.65975 85.957 0.594922 85.957 0.594922C85.957 0.594922 86.7757 2.84829 90.0544 3.46296C90.0544 3.46296 89.2357 6.12696 91.489 7.76562C93.9477 5.92162 100.094 5.71759 100.094 0.594922C100.094 -4.52775 93.9477 -4.73175 91.489 -6.57708Z" fill="#54B9B2"/>
<path d="M107.297 5.66309C109.949 5.66309 112.1 3.51372 112.1 0.861719C112.1 -1.79028 109.949 -3.94095 107.297 -3.94095C104.645 -3.94095 102.496 -1.79028 102.496 0.861719C102.496 3.51372 104.645 5.66309 107.297 5.66309Z" fill="#E9422E"/>
<path d="M67.9999 123.751V146.667H90.8986L107.324 163.092L123.748 146.667H146.667V123.751L163.092 107.326L146.667 90.9016V68.0002H123.748L107.324 51.5763L90.8986 68.0002H67.9999V90.9016L51.5759 107.326L67.9999 123.751ZM62.6666 125.572L44.4199 107.326L62.6666 89.0802V62.6669H89.0773L107.324 44.4202L125.569 62.6669H150.667V89.0802L168.912 107.326L150.667 125.572V150.667H125.569L107.324 168.914L89.0773 150.667H62.6666V125.572Z" fill="#54B9B2"/>
<path d="M76.0001 120.108V138.667H94.5415L107.324 151.448L120.105 138.667H138.667V120.108L151.448 107.326L138.667 94.5443V76.0003H120.105L107.324 63.219L94.5415 76.0003H76.0001V94.5443L63.2188 107.326L76.0001 120.108ZM72.0001 121.93L57.3975 107.326L72.0001 92.723V72.0003H92.7201L107.324 57.3976L121.927 72.0003H142.667V92.723L157.271 107.326L142.667 121.93V142.667H121.927L107.324 157.271L92.7201 142.667H72.0001V121.93Z" fill="#54B9B2"/>
<path d="M77.2589 107.201L80.7735 110.561L85.1015 109.081C85.0548 108.492 85.0242 107.899 85.0242 107.297C85.0242 106.632 85.0589 105.975 85.1162 105.324L80.7642 103.859L77.2589 107.201ZM90.3055 92.9213C91.1189 91.9613 92.0109 91.0693 92.9722 90.26L90.9415 86.1666L86.0989 86.052L86.2082 90.9133L90.3055 92.9213ZM105.399 85.1106C106.024 85.0573 106.658 85.024 107.298 85.024C107.943 85.024 108.582 85.0586 109.215 85.112L110.647 80.8533L107.304 77.3466L103.944 80.8626L105.399 85.1106ZM121.643 90.2773C122.626 91.1066 123.536 92.0186 124.362 93.004L128.339 91.0306L128.455 86.1866L123.592 86.2973L121.643 90.2773ZM129.488 105.455C129.539 106.063 129.572 106.676 129.572 107.297C129.572 107.983 129.535 108.66 129.473 109.329L133.652 110.736L137.16 107.393L133.644 104.033L129.488 105.455ZM124.237 121.735C123.403 122.713 122.488 123.621 121.498 124.444L123.475 128.428L128.319 128.544L128.208 123.683L124.237 121.735ZM109.023 129.497C108.452 129.541 107.879 129.572 107.298 129.572C106.594 129.572 105.896 129.535 105.208 129.471L103.77 133.741L107.112 137.248L110.472 133.732L109.023 129.497ZM92.8282 124.209C91.8722 123.392 90.9842 122.496 90.1788 121.529L86.0788 123.565L85.9629 128.408L90.8242 128.299L92.8282 124.209ZM88.7589 107.297C88.7589 117.52 97.0762 125.836 107.298 125.836C117.52 125.836 125.836 117.52 125.836 107.297C125.836 97.0759 117.52 88.7586 107.298 88.7586C97.0762 88.7586 88.7589 97.0759 88.7589 107.297ZM79.7656 115.133L71.4629 107.197L79.7656 99.2839L85.8322 101.369C86.3322 99.5573 87.0575 97.8373 87.9749 96.24L82.2629 93.4333L82.0029 81.9506L93.4695 82.2253L96.2682 87.9586C97.8682 87.0426 99.5922 86.32 101.407 85.8213L99.3735 79.8546L107.308 71.552L115.223 79.8546L113.171 85.816C114.991 86.3133 116.716 87.0373 118.319 87.9546L121.073 82.3506L132.555 82.0919L132.28 93.56L126.656 96.304C127.572 97.9093 128.295 99.6386 128.79 101.461L134.652 99.4613L142.955 107.397L134.651 115.311L128.748 113.281C128.24 115.099 127.508 116.823 126.58 118.423L132.155 121.161L132.414 132.644L120.946 132.369L118.188 126.716C116.579 127.623 114.85 128.335 113.026 128.821L115.044 134.741L107.108 143.044L99.1936 134.741L101.262 128.733C99.4495 128.223 97.7309 127.488 96.1362 126.56L93.3442 132.244L81.8615 132.504L82.1362 121.035L87.9002 118.224C86.9935 116.62 86.2789 114.895 85.7895 113.079L79.7656 115.133Z" fill="#E9422E"/>
<path d="M93.0234 107.439C93.0234 103.57 96.0887 100.21 99.9581 100.21L99.9994 100.214V100.191C99.9994 96.3217 103.278 93.091 107.147 93.091C111.017 93.091 114.295 96.1363 114.295 100.004L114.291 100H114.314C118.183 100 121.121 103.323 121.121 107.192C121.121 111.063 117.783 114.387 113.914 114.387L113.333 114.382V114.404C113.333 118.274 110.595 121.523 106.726 121.523C102.857 121.523 100.119 118.498 100.119 114.628L100.125 114.667H100.102C96.2314 114.667 93.0234 111.31 93.0234 107.439Z" fill="#D69538"/>
<path d="M56.4242 0.88971L40.0002 -15.5356V-38.6663H16.5109L0.0868452 -55.0902L-16.3385 -38.6663H-38.6665V-15.5356L-55.0905 0.88971L-38.6665 17.3137V40.0004H-16.3385L0.0868452 56.4257L16.5109 40.0004H40.0002V17.3137L56.4242 0.88971ZM62.2469 0.88971L44.0002 19.1351V45.3337H18.3322L0.0868452 63.5791L-18.1598 45.3337H-43.9998V19.1351L-62.2451 0.88971L-43.9998 -17.3569V-42.6663H-18.1598L0.0868452 -60.9116L18.3322 -42.6663H44.0002V-17.3569L62.2469 0.88971Z" fill="#54B9B2"/>
<path d="M43.4492 0.889293L30.6665 -11.892V-30.6667H12.8678L0.0864609 -43.448L-12.6962 -30.6667H-30.6669V-11.892L-43.4469 0.889293L-30.6669 13.6707V30.6666H-12.6962L0.0864609 43.4479L12.8678 30.6666H30.6665V13.6707L43.4492 0.889293ZM49.2691 0.889293L34.6665 15.492V36H14.6891L0.0864609 50.604L-14.5162 36H-34.6669V15.492L-49.2695 0.889293L-34.6669 -13.7134V-33.3334H-14.5162L0.0864609 -47.9373L14.6891 -33.3334H34.6665V-13.7134L49.2691 0.889293Z" fill="#54B9B2"/>
<path d="M29.9229 0.95775L26.4069 -2.40228L22.2509 -0.980922C22.3016 -0.372922 22.3336 0.240388 22.3336 0.861721C22.3336 1.54705 22.2989 2.22442 22.2376 2.89375L26.4149 4.30039L29.9229 0.95775ZM17.0003 15.2991C16.1656 16.2778 15.251 17.1858 14.2603 18.0071L16.2389 21.9911L21.0816 22.1071L20.9723 17.2458L17.0003 15.2991ZM1.78691 23.0604C1.21625 23.1058 0.641618 23.1351 0.0602843 23.1351C-0.643716 23.1351 -1.34107 23.0977 -2.03041 23.0337L-3.46641 27.3057L-0.125067 30.8124L3.23626 27.2964L1.78691 23.0604ZM-14.4091 17.7738C-15.3651 16.9551 -16.2531 16.0591 -17.0584 15.0924L-21.1584 17.1284L-21.2744 21.9711L-16.4131 21.8617L-14.4091 17.7738ZM-22.1344 2.6444C-22.1824 2.05507 -22.2117 1.46172 -22.2117 0.861721C-22.2117 0.195054 -22.1771 -0.462287 -22.1197 -1.11295L-26.473 -2.57825L-29.9784 0.765757L-26.4637 4.12572L-22.1344 2.6444ZM-16.9318 -13.5156C-16.1184 -14.4743 -15.2264 -15.3663 -14.2637 -16.1769L-16.2958 -20.2689L-21.1384 -20.3836L-21.0291 -15.5223L-16.9318 -13.5156ZM-1.83705 -21.3249C-1.21171 -21.3783 -0.579716 -21.413 0.0602843 -21.413C0.706951 -21.413 1.34423 -21.3782 1.97623 -21.3236L3.41094 -25.5836L0.068227 -29.0889L-3.2931 -25.5743L-1.83705 -21.3249ZM14.4069 -16.1596C15.3869 -15.3289 16.2989 -14.4169 17.1256 -13.4316L21.1016 -15.4062L21.2176 -20.249L16.3562 -20.1383L14.4069 -16.1596ZM18.599 0.861721C18.599 -9.36094 10.283 -17.6769 0.0602843 -17.6769C-10.161 -17.6769 -18.4784 -9.36094 -18.4784 0.861721C-18.4784 11.0844 -10.161 19.4004 0.0602843 19.4004C10.283 19.4004 18.599 11.0844 18.599 0.861721ZM35.7176 0.961721L27.4149 8.87507L21.5122 6.8431C21.0029 8.6631 20.2709 10.387 19.3443 11.987L24.9176 14.7257L25.1776 26.2084L13.7096 25.9324L10.9523 20.2804C9.34161 21.1857 7.61228 21.899 5.78828 22.3844L7.8069 28.3044L-0.129104 36.6084L-8.04238 28.3044L-5.97572 22.2964C-7.78772 21.7858 -9.50507 21.051 -11.0997 20.123L-13.8931 25.8071L-25.3757 26.0671L-25.0997 14.5991L-19.337 11.787C-20.2437 10.1844 -20.9584 8.4591 -21.4464 6.6431L-27.4717 8.69772L-35.7744 0.761721L-27.4717 -7.15293L-21.4051 -5.06627C-20.9037 -6.87827 -20.1784 -8.59957 -19.2611 -10.1956L-24.9744 -13.0036L-25.2344 -24.4863L-13.7664 -24.2116L-10.9691 -18.4769C-9.36908 -19.3929 -7.64507 -20.1156 -5.83041 -20.6156L-7.86511 -26.5823L0.0722635 -34.885L7.98561 -26.5823L5.93359 -20.6209C7.75359 -20.1222 9.47894 -19.3983 11.0829 -18.4823L13.8363 -24.085L25.3189 -24.3449L25.0443 -12.877L19.4202 -10.1329C20.3349 -8.52761 21.0562 -6.79825 21.5536 -4.97558L27.4149 -6.97428L35.7176 0.961721Z" fill="#E9422E"/>
<path d="M14.027 0.641602C14.027 4.51094 10.8323 7.94961 6.96432 7.94961L6.66699 7.94427V7.96829C6.66699 11.8363 3.64433 14.6963 -0.225001 14.6963C-4.093 14.6963 -7.11569 11.279 -7.11569 7.40964L-7.11165 6.66693H-7.13431C-11.0036 6.66693 -14.0703 4.08958 -14.0703 0.220248C-14.0703 -3.65042 -10.861 -6.22637 -6.99167 -6.22637L-6.66634 -6.22239V-6.24505C-6.66634 -10.1157 -3.67165 -13.4024 0.196353 -13.4024C4.06702 -13.4024 7.06035 -10.4171 7.06035 -6.54642L7.05501 -6.6664H7.07897C10.9483 -6.6664 14.027 -3.22773 14.027 0.641602Z" fill="#D69538"/>
<path d="M77.0662 50.2907C82.2115 53.7974 86.1195 49.032 88.6342 46.5187C91.1502 44.004 94.4502 46.864 94.4502 46.864C94.4502 46.864 96.2422 45.6387 95.3942 43.8454C94.5449 42.0547 91.9035 42.4947 91.9035 42.4947C91.9035 42.4947 95.3995 40.832 93.6049 38.284L92.5142 37.1934C89.9715 35.4774 88.5089 40.1054 88.5089 40.1054C88.6035 38.6587 87.6102 37.6347 86.6236 37.528C84.4382 37.292 83.9822 39.0987 83.9822 39.0987C89.2636 41.6147 84.2955 47.8774 80.6022 47.7187C78.9235 47.6454 76.5235 46.8093 75.3062 42.9973C73.7995 38.2827 78.8715 32.4867 83.1249 27.8053L80.2956 24.9761C75.6129 29.2281 70.0076 34.4907 65.2929 32.984C61.4809 31.7653 60.6422 29.3654 60.5715 27.688C60.4115 23.9947 66.6756 19.0267 69.1902 24.308C69.1902 24.308 70.9969 23.852 70.7622 21.668C70.6556 20.6787 69.6316 19.6867 68.1849 19.78C68.1849 19.78 73.5129 18.0987 70.6209 15.2067C67.7289 12.3134 65.7956 16.3854 65.7956 16.3854C65.7956 16.3854 66.2355 13.744 64.4422 12.8947C62.6515 12.0467 61.4249 13.8387 61.4249 13.8387C61.4249 13.8387 64.2862 17.1387 61.7715 19.6533C59.2555 22.1693 54.4916 26.0787 57.9982 31.224C60.0036 34.164 63.5342 36.144 68.9689 34.5253C67.3769 35.2493 65.7795 35.7987 64.2195 36.092C64.2195 36.092 64.4169 37.28 66.0502 37.4053C66.0502 37.4053 62.9729 40.1054 59.3275 38.2187C59.3275 38.2187 59.0156 40.7947 61.0262 41.172C61.0262 41.172 55.1569 45.92 56.1169 52.056C62.2889 53.052 67.0156 47.1613 67.0156 47.1613C67.3929 49.172 69.9755 48.868 69.9755 48.868C68.0902 45.2214 70.7942 42.148 70.7942 42.148C70.9195 43.7827 72.1075 43.9813 72.1075 43.9813C72.4515 42.1573 73.1436 40.284 74.0569 38.428C71.9369 44.3707 73.9689 48.1787 77.0662 50.2907Z" fill="#859392"/>
<path d="M46.7281 94.5869C46.7281 94.5869 43.8681 91.2856 46.3827 88.771C48.8974 86.2563 53.6627 82.347 50.156 77.2016C48.0427 74.1043 44.2361 72.0723 38.2921 74.1936C40.1494 73.2803 42.0227 72.5883 43.8467 72.2443C43.8467 72.2443 43.6481 71.0563 42.0134 70.9296C42.0134 70.9296 45.0867 68.2256 48.7334 70.1109C48.7334 70.1109 49.0374 67.5296 47.0254 67.1523C47.0254 67.1523 52.916 62.4243 51.92 56.2536C45.784 55.2923 41.0361 61.163 41.0361 61.163C40.6587 59.151 38.0827 59.463 38.0827 59.463C39.9681 63.1096 37.2694 66.1869 37.2694 66.1869C37.1441 64.5523 35.9574 64.355 35.9574 64.355C35.6628 65.9163 35.1134 67.5123 34.3894 69.1056C36.0081 63.6709 34.0267 60.139 31.0881 58.135C25.9427 54.627 22.0347 59.3923 19.5187 61.907C17.0041 64.4216 13.704 61.5603 13.704 61.5603C13.704 61.5603 11.9121 62.787 12.7601 64.579C13.6094 66.371 16.2507 65.9309 16.2507 65.9309C16.2507 65.9309 12.1787 67.8643 15.0721 70.7563C17.9641 73.6483 19.6454 68.3216 19.6454 68.3216C19.5507 69.767 20.5441 70.7923 21.5321 70.8976C23.7174 71.1336 24.1721 69.327 24.1721 69.327C18.8894 66.811 23.8587 60.5483 27.5521 60.707C29.2307 60.779 31.6307 61.6163 32.848 65.4283C34.356 70.1443 29.0934 75.7496 24.8414 80.4323L27.6694 83.2616C32.3521 79.0083 38.1467 73.9349 42.8614 75.4416C46.6734 76.6603 47.5107 79.0589 47.584 80.7389C47.7427 84.4323 41.4787 89.399 38.9641 84.119C38.9641 84.119 37.1561 84.5736 37.3908 86.7589C37.4974 87.7469 38.5227 88.739 39.968 88.6456C39.968 88.6456 35.3414 90.1083 37.0574 92.6496L38.1494 93.7403C40.6961 95.5363 42.3587 92.0403 42.3587 92.0403C42.3587 92.0403 41.9187 94.6816 43.7107 95.5309C45.5027 96.3789 46.7281 94.5869 46.7281 94.5869Z" fill="#859392"/>
<path d="M138.246 213.261L107.298 182.314L76.3509 213.261L107.298 244.21L138.246 213.261ZM107.298 175.536L145.023 213.261L107.298 250.987L69.5723 213.261L107.298 175.536Z" fill="#D69538"/>
<path d="M123.107 220.7C125.36 219.062 124.54 216.396 124.54 216.396C127.819 215.782 128.639 213.528 128.639 213.528C128.639 213.528 127.819 211.275 124.54 210.66C124.54 210.66 125.36 207.996 123.107 206.358C120.647 208.202 114.5 208.406 114.5 213.528C114.5 218.651 120.647 218.856 123.107 220.7Z" fill="#54B9B2"/>
<path d="M91.489 205.824C89.2357 207.463 90.0544 210.127 90.0544 210.127C86.7757 210.74 85.957 212.995 85.957 212.995C85.957 212.995 86.7757 215.248 90.0544 215.864C90.0544 215.864 89.2357 218.528 91.489 220.167C93.9477 218.323 100.094 218.118 100.094 212.995C100.094 207.872 93.9477 207.668 91.489 205.824Z" fill="#54B9B2"/>
<path d="M104.696 196.019C104.696 196.019 102.03 195.199 100.392 197.452C102.237 199.912 102.441 206.059 107.564 206.059C112.686 206.059 112.89 199.912 114.736 197.452C113.096 195.199 110.432 196.019 110.432 196.019C109.818 192.74 107.564 191.92 107.564 191.92C107.564 191.92 105.31 192.74 104.696 196.019Z" fill="#54B9B2"/>
<path d="M107.297 218.063C109.949 218.063 112.1 215.914 112.1 213.262C112.1 210.61 109.949 208.46 107.297 208.46C104.645 208.46 102.496 210.61 102.496 213.262C102.496 215.914 104.645 218.063 107.297 218.063Z" fill="#E9422E"/>
<path d="M56.4242 213.29L40.0002 196.864V173.334H16.5109L0.0868452 156.91L-16.3385 173.334H-38.6665V196.864L-55.0905 213.29L-38.6665 229.715V252H-16.3385L0.0868452 268.424L16.5109 252H40.0002V229.715L56.4242 213.29ZM62.2469 213.29L44.0002 231.535V257.334H18.3322L0.0868452 275.579L-18.1598 257.334H-43.9998V231.535L-62.2451 213.29L-43.9998 195.044V169.334H-18.1598L0.0868452 151.088L18.3322 169.334H44.0002V195.044L62.2469 213.29Z" fill="#54B9B2"/>
<path d="M43.4492 213.289L30.6665 200.508V182.667H12.8678L0.0864609 169.885L-12.6962 182.667H-30.6669V200.508L-43.4469 213.289L-30.6669 226.072V242.667H-12.6962L0.0864609 255.449L12.8678 242.667H30.6665V226.072L43.4492 213.289ZM49.2691 213.289L34.6665 227.892V248H14.6891L0.0864609 262.603L-14.5162 248H-34.6669V227.892L-49.2695 213.289L-34.6669 198.687V178.667H-14.5162L0.0864609 164.063L14.6891 178.667H34.6665V198.687L49.2691 213.289Z" fill="#54B9B2"/>
<path d="M29.9229 213.357L26.4069 209.997L22.2509 211.419C22.3016 212.028 22.3336 212.641 22.3336 213.261C22.3336 213.947 22.2989 214.624 22.2376 215.293L26.4149 216.7L29.9229 213.357ZM17.0003 227.699C16.1656 228.677 15.251 229.587 14.2603 230.407L16.2389 234.391L21.0816 234.508L20.9723 229.646L17.0003 227.699ZM1.78691 235.461C1.21625 235.505 0.641618 235.535 0.0602843 235.535C-0.643716 235.535 -1.34107 235.499 -2.03041 235.433L-3.46641 239.704L-0.125067 243.212L3.23626 239.696L1.78691 235.461ZM-14.4091 230.174C-15.3651 229.355 -16.2531 228.46 -17.0584 227.493L-21.1584 229.529L-21.2744 234.371L-16.4131 234.261L-14.4091 230.174ZM-22.1344 215.044C-22.1824 214.455 -22.2117 213.863 -22.2117 213.261C-22.2117 212.595 -22.1771 211.937 -22.1197 211.287L-26.473 209.823L-29.9784 213.165L-26.4637 216.525L-22.1344 215.044ZM-16.9318 198.885C-16.1184 197.924 -15.2264 197.035 -14.2637 196.224L-16.2958 192.131L-21.1384 192.015L-21.0291 196.877L-16.9318 198.885ZM-1.83705 191.075C-1.21171 191.021 -0.579716 190.988 0.0602843 190.988C0.706951 190.988 1.34423 191.022 1.97623 191.076L3.41094 186.817L0.068227 183.311L-3.2931 186.827L-1.83705 191.075ZM14.4069 196.241C15.3869 197.071 16.2989 197.982 17.1256 198.968L21.1016 196.995L21.2176 192.151L16.3562 192.26L14.4069 196.241ZM18.599 213.261C18.599 203.039 10.283 194.723 0.0602843 194.723C-10.161 194.723 -18.4784 203.039 -18.4784 213.261C-18.4784 223.483 -10.161 231.8 0.0602843 231.8C10.283 231.8 18.599 223.483 18.599 213.261ZM35.7176 213.361L27.4149 221.275L21.5122 219.244C21.0029 221.063 20.2709 222.787 19.3443 224.388L24.9176 227.125L25.1776 238.608L13.7096 238.333L10.9523 232.679C9.34161 233.587 7.61228 234.299 5.78828 234.784L7.8069 240.704L-0.129104 249.007L-8.04238 240.704L-5.97572 234.697C-7.78772 234.187 -9.50507 233.451 -11.0997 232.524L-13.8931 238.207L-25.3757 238.467L-25.0997 227L-19.337 224.187C-20.2437 222.584 -20.9584 220.86 -21.4464 219.043L-27.4717 221.097L-35.7744 213.161L-27.4717 205.248L-21.4051 207.333C-20.9037 205.521 -20.1784 203.8 -19.2611 202.204L-24.9744 199.397L-25.2344 187.915L-13.7664 188.189L-10.9691 193.923C-9.36908 193.007 -7.64507 192.284 -5.83041 191.784L-7.86511 185.817L0.0722635 177.515L7.98561 185.817L5.93359 191.78C7.75359 192.277 9.47894 193.001 11.0829 193.919L13.8363 188.315L25.3189 188.056L25.0443 199.524L19.4202 202.267C20.3349 203.873 21.0562 205.601 21.5536 207.425L27.4149 205.425L35.7176 213.361Z" fill="#E9422E"/>
<path d="M14.027 213.507C14.027 217.378 10.8323 220.349 6.96432 220.349L6.66699 220.346V220.368C6.66699 224.237 3.64433 227.328 -0.225001 227.328C-4.093 227.328 -7.11569 224.146 -7.11569 220.276L-7.11165 220H-7.13431C-11.0036 220 -14.0703 216.956 -14.0703 213.087C-14.0703 209.216 -10.861 206.172 -6.99167 206.172L-6.66634 206.177V206.155C-6.66634 202.285 -3.67165 199.232 0.196353 199.232C4.06702 199.232 7.06035 202.449 7.06035 206.32L7.05501 206.667H7.07897C10.9483 206.667 14.027 209.639 14.027 213.507Z" fill="#D69538"/>
<path d="M61.0262 171.665C59.0156 172.043 59.3275 174.617 59.3275 174.617C62.9729 172.732 66.0502 175.432 66.0502 175.432C64.4169 175.557 64.2195 176.744 64.2195 176.744C65.7795 177.037 67.3769 177.588 68.9689 178.311C63.5342 176.693 60.0036 178.673 57.9982 181.613C54.4916 186.759 59.2555 190.667 61.7715 193.183C64.2862 195.697 61.4249 198.999 61.4249 198.999C61.4249 198.999 62.6515 200.789 64.4422 199.941C66.2355 199.092 65.7956 196.451 65.7956 196.451C65.7956 196.451 67.7289 200.524 70.6209 197.629C73.5129 194.739 68.1849 193.056 68.1849 193.056C69.6316 193.151 70.6556 192.157 70.7622 191.171C70.9969 188.985 69.1902 188.529 69.1902 188.529C66.6756 193.811 60.4115 188.843 60.5715 185.149C60.6422 183.471 61.4809 181.071 65.2929 179.853C70.0076 178.347 75.6129 183.608 80.2956 187.861L83.1249 185.031C78.8715 180.351 73.7995 174.555 75.3062 169.839C76.5235 166.028 78.9235 165.191 80.6022 165.117C84.2955 164.959 89.2636 171.223 83.9822 173.737C83.9822 173.737 84.4382 175.545 86.6236 175.309C87.6102 175.203 88.6035 174.177 88.5089 172.732C88.5089 172.732 89.9715 177.361 92.5142 175.644L93.6049 174.552C95.3995 172.004 91.9035 170.343 91.9035 170.343C91.9035 170.343 94.5449 170.781 95.3942 168.991C96.2422 167.199 94.4502 165.972 94.4502 165.972C94.4502 165.972 91.1502 168.833 88.6342 166.319C86.1195 163.804 82.2115 159.039 77.0662 162.547C73.9689 164.659 71.9369 168.465 74.0569 174.409C73.1436 172.553 72.4515 170.679 72.1075 168.855C72.1075 168.855 70.9195 169.053 70.7942 170.688C70.7942 170.688 68.0902 167.615 69.9755 163.968C69.9755 163.968 67.3929 163.664 67.0156 165.676C67.0156 165.676 62.2889 159.785 56.1169 160.781C55.1569 166.917 61.0262 171.665 61.0262 171.665Z" fill="#859392"/>
<path d="M39.968 124.192C38.5227 124.097 37.4974 125.091 37.3908 126.077C37.1561 128.263 38.9641 128.719 38.9641 128.719C41.4787 123.436 47.7427 128.405 47.584 132.099C47.5107 133.777 46.6734 136.176 42.8614 137.395C38.1467 138.903 32.3521 133.829 27.6694 129.576L24.8414 132.405C29.0934 137.087 34.356 142.693 32.848 147.408C31.6307 151.22 29.2307 152.059 27.5521 152.131C23.8587 152.289 18.8894 146.025 24.1721 143.511C24.1721 143.511 23.7174 141.703 21.5321 141.939C20.5441 142.045 19.5507 143.069 19.6454 144.516C19.6454 144.516 17.9641 139.188 15.0721 142.08C12.1787 144.972 16.2507 146.905 16.2507 146.905C16.2507 146.905 13.6094 146.465 12.7601 148.259C11.9121 150.049 13.704 151.276 13.704 151.276C13.704 151.276 17.0041 148.415 19.5187 150.929C22.0347 153.444 25.9427 158.209 31.0881 154.701C34.0267 152.697 36.0081 149.167 34.3894 143.732C35.1134 145.324 35.6628 146.92 35.9574 148.481C35.9574 148.481 37.1441 148.285 37.2694 146.649C37.2694 146.649 39.9681 149.727 38.0827 153.373C38.0827 153.373 40.6587 153.685 41.0361 151.675C41.0361 151.675 45.784 157.545 51.92 156.584C52.916 150.413 47.0254 145.685 47.0254 145.685C49.0374 145.308 48.7334 142.725 48.7334 142.725C45.0867 144.611 42.0134 141.907 42.0134 141.907C43.6481 141.781 43.8467 140.592 43.8467 140.592C42.0227 140.249 40.1494 139.557 38.2921 138.644C44.2361 140.765 48.0427 138.732 50.156 135.636C53.6627 130.489 48.8974 126.581 46.3827 124.067C43.8681 121.551 46.7281 118.251 46.7281 118.251C46.7281 118.251 45.5027 116.459 43.7107 117.307C41.9187 118.156 42.3587 120.797 42.3587 120.797C42.3587 120.797 40.6961 117.301 38.1494 119.097L37.0574 120.188C35.3414 122.729 39.968 124.192 39.968 124.192Z" fill="#859392"/>
</g>
<defs>
<clipPath id="clip0_34_5271">
<rect width="213" height="213" fill="white"/>
</clipPath>
</defs>
</svg>
