<svg viewBox="0 0 1051 188" fill="none" xmlns="http://www.w3.org/2000/svg" class="h-4" preserveAspectRatio="xMidYMid meet"><path fill-rule="evenodd" clip-rule="evenodd" d="M985.262 187.698C973.868 187.698 963.683 184.933 954.706 179.402C945.729 173.698 938.564 166.006 933.213 156.327C928.034 146.648 925.444 135.759 925.444 123.66C925.444 111.56 928.034 100.671 933.213 90.992C938.564 81.3127 945.729 73.6211 954.706 67.9173C963.683 62.2134 973.868 59.3615 985.262 59.3615C994.412 59.3615 1002.7 61.3492 1010.12 65.3246C1014.85 67.7445 1018.98 70.7943 1022.51 74.4742C1023.85 75.8683 1026.44 74.9718 1026.44 73.0373V13.7335C1026.44 10.3022 1028.62 7.2522 1031.86 6.1498L1039.43 3.57928C1044.62 1.81738 1050 5.67891 1050 11.1629V179.69C1050 184.113 1046.42 187.698 1042 187.698H1034.43C1030.02 187.698 1026.44 184.113 1026.44 179.69V174.299C1026.44 172.372 1023.87 171.476 1022.54 172.862C1019.05 176.475 1015 179.52 1010.38 181.994C1002.96 185.797 994.584 187.698 985.262 187.698ZM1009.34 160.216C1003.65 163.846 996.915 165.661 989.146 165.661C981.378 165.661 974.472 163.846 968.43 160.216C962.56 156.586 957.899 151.66 954.447 145.438C951.167 139.043 949.527 131.697 949.527 123.4C949.527 115.277 951.167 108.104 954.447 101.881C957.899 95.4859 962.56 90.4734 968.43 86.8437C974.3 83.214 981.119 81.3991 988.887 81.3991C996.656 81.3991 1003.39 83.214 1009.09 86.8437C1014.96 90.4734 1019.53 95.3995 1022.81 101.622C1026.26 107.844 1027.99 115.19 1027.99 123.66C1027.99 131.783 1026.35 139.043 1023.07 145.438C1019.79 151.66 1015.21 156.586 1009.34 160.216Z" fill="#5B5B5B"></path><path d="M894.14 187.697C889.722 187.697 886.141 184.111 886.141 179.689V115.88C886.141 106.546 883.207 98.8549 877.337 92.8054C871.467 86.7558 863.872 83.731 854.549 83.731C848.334 83.731 842.81 85.1138 837.976 87.8793C833.143 90.6448 829.345 94.4474 826.582 99.287C823.82 104.127 822.439 109.658 822.439 115.88V179.689C822.439 184.111 818.858 187.697 814.441 187.697H807.132C802.715 187.697 799.134 184.111 799.134 179.689V78.2681C799.134 74.8466 801.305 71.8031 804.537 70.6931L812.601 67.9239C817.422 66.2681 822.439 69.8554 822.439 74.959C822.439 76.7376 824.789 77.5745 826.035 76.3067C829.04 73.2489 832.503 70.6247 836.423 68.4343C843.846 64.1132 852.219 61.9527 861.541 61.9527C870.863 61.9527 879.063 64.2861 886.141 68.9528C893.392 73.6196 899.089 79.7556 903.232 87.3608C907.375 94.7931 909.447 102.744 909.447 111.213V179.689C909.447 184.111 905.866 187.697 901.449 187.697H894.14Z" fill="#5B5B5B"></path><path d="M730.31 187.798C720.298 187.798 711.234 185.551 703.12 181.057C695.179 176.391 688.964 169.995 684.476 161.872C679.987 153.748 677.743 144.328 677.743 133.612V75.7806C677.743 72.3597 679.913 69.3165 683.145 68.2061L690.454 65.6947C695.646 63.9106 701.049 67.7733 701.049 73.2692V132.575C701.049 139.315 702.171 145.192 704.415 150.205C706.832 155.044 710.285 158.76 714.773 161.353C719.262 163.946 724.527 165.242 730.569 165.242C739.719 165.242 746.883 162.39 752.062 156.686C757.241 150.81 759.831 142.772 759.831 132.575V75.7806C759.831 72.3597 762.001 69.3165 765.233 68.2061L772.542 65.6947C777.734 63.9106 783.137 67.7733 783.137 73.2692V133.612C783.137 144.328 780.892 153.748 776.404 161.872C771.915 169.995 765.7 176.391 757.759 181.057C749.991 185.551 740.841 187.798 730.31 187.798Z" fill="#5B5B5B"></path><path fill-rule="evenodd" clip-rule="evenodd" d="M598.244 85.8172V179.701C598.244 184.123 601.826 187.709 606.243 187.709H613.552C617.969 187.709 621.55 184.123 621.55 179.701V85.8172H598.244ZM621.55 46.1495V67.9351L598.244 69.9484V46.1495C598.244 36.9887 600.23 29.0378 604.2 22.2969C608.171 15.3831 613.609 9.93855 620.514 5.96313C627.592 1.98772 635.792 0 645.115 0C652.193 0 658.321 1.20991 663.5 3.62973C666.501 5.03172 669.357 6.81083 672.068 8.96708C675.454 11.6603 675.291 16.6731 672.207 19.7083L668.333 23.5208C665.119 26.684 659.985 26.3505 655.958 24.3242C655.628 24.1579 655.293 24.0006 654.955 23.8525C652.193 22.4697 648.826 21.7783 644.856 21.7783C637.433 21.7783 631.649 23.9389 627.506 28.26C623.535 32.5811 621.55 38.5443 621.55 46.1495Z" fill="#5B5B5B"></path><path d="M574.256 72.0206C570.687 72.3289 567.947 75.3195 567.947 78.9061C567.947 82.723 571.038 85.8172 574.85 85.8172H598.244H621.55H652.653C657.071 85.8172 660.652 82.2318 660.652 77.809V73.2863C660.652 68.5918 656.637 64.9042 651.966 65.3077L621.55 67.9351L598.244 69.9484L574.256 72.0206Z" fill="#5B5B5B"></path><path fill-rule="evenodd" clip-rule="evenodd" d="M511.496 187.697C499.239 187.697 488.19 184.931 478.35 179.4C468.51 173.696 460.741 166.005 455.044 156.326C449.347 146.646 446.499 135.671 446.499 123.399C446.499 111.3 449.261 100.41 454.785 90.7311C460.482 81.0519 468.078 73.4467 477.573 67.9157C487.241 62.2118 498.03 59.3599 509.942 59.3599C521.336 59.3599 531.349 61.9526 539.981 67.1379C548.785 72.3232 555.604 79.4963 560.438 88.657C565.444 97.8177 567.947 108.188 567.947 119.769C567.947 121.497 567.861 123.399 567.688 125.473C567.681 125.558 567.673 125.643 567.664 125.73C567.295 129.529 563.908 132.214 560.095 132.214H479.81C474.853 132.214 471.029 136.734 472.852 141.349C473.406 142.753 474.031 144.116 474.725 145.436C478.177 151.832 483.097 156.844 489.485 160.474C495.872 163.931 503.209 165.659 511.496 165.659C518.401 165.659 524.702 164.449 530.399 162.029C533.542 160.734 536.436 159.092 539.084 157.103C542.832 154.287 548.241 154.014 551.526 157.36L555.311 161.215C558.214 164.172 558.423 168.91 555.359 171.698C550.535 176.089 544.977 179.607 538.686 182.252C530.227 185.882 521.163 187.697 511.496 187.697ZM528.846 85.8051C534.197 88.9163 538.341 93.4102 541.275 99.2869C542.029 100.751 542.685 102.3 543.245 103.935C544.806 108.491 540.983 112.769 536.172 112.769L479.925 112.769C474.945 112.769 471.107 108.201 473.038 103.606C473.474 102.57 473.949 101.563 474.466 100.583C477.746 94.3609 482.407 89.5212 488.449 86.0643C494.491 82.6075 501.483 80.879 509.424 80.879C517.02 80.879 523.494 82.521 528.846 85.8051Z" fill="#5B5B5B"></path><path d="M366.972 187.692C362.554 187.692 358.973 184.107 358.973 179.684V78.2672C358.973 74.8463 361.144 71.8031 364.375 70.6927L373.821 67.447C377.966 66.0228 382.279 69.1064 382.279 73.4939V75.2828C382.279 76.3407 383.702 76.7835 384.351 75.9484C391.601 66.6148 402.046 61.948 415.684 61.948C421.899 61.948 427.509 63.0715 432.516 65.3185C435.584 66.5898 438.523 68.4131 441.332 70.7883C444.493 73.4608 444.297 78.2281 441.421 81.2054L437.06 85.7187C433.883 89.0083 428.664 88.7477 424.595 86.6635C423.966 86.3417 423.327 86.054 422.675 85.8005C419.568 84.5906 415.943 83.9857 411.799 83.9857C403.168 83.9857 396.09 86.7512 390.565 92.2822C385.041 97.8132 382.279 106.196 382.279 117.431V179.684C382.279 184.107 378.698 187.692 374.28 187.692H366.972Z" fill="#5B5B5B"></path><path d="M311.354 188C306.937 188 303.356 184.415 303.356 179.992V78.0022C303.356 74.1971 306.03 70.9174 309.754 70.1559L332.917 65.419C337.876 64.4051 342.516 68.1984 342.516 73.2653V179.992C342.516 184.415 338.935 188 334.518 188H311.354Z" fill="#DB0000"></path><path d="M256.657 187.976C252.239 187.976 248.658 184.391 248.658 179.968V116.991C248.658 110.499 246.61 105.288 242.515 101.359C238.591 97.2588 233.557 95.2087 227.414 95.2087C223.148 95.2087 219.394 96.1483 216.152 98.0276C212.91 99.736 210.351 102.299 208.474 105.715C206.597 108.961 205.658 112.72 205.658 116.991V179.968C205.658 184.391 202.077 187.976 197.66 187.976H174.496C170.078 187.976 166.497 184.391 166.497 179.968V77.9782C166.497 74.1731 169.172 70.8934 172.895 70.1319L199.098 64.7736C202.486 64.0806 205.658 66.6731 205.658 70.136C205.658 71.3176 207.07 71.962 208.005 71.2407C210.048 69.6643 212.252 68.2573 214.616 67.0197C222.295 62.9195 230.912 60.8694 240.468 60.8694C249.682 60.8694 257.787 63.0904 264.783 67.5322C271.95 71.8033 277.581 77.5265 281.676 84.7019C285.771 91.8773 287.819 99.736 287.819 108.278V179.968C287.819 184.391 284.238 187.976 279.82 187.976H256.657Z" fill="#DB0000"></path><path d="M75.506 188C60.6607 188 47.5218 184.839 36.0893 178.518C24.8274 172.197 15.9544 163.484 9.47024 152.379C3.15675 141.104 0 128.291 0 113.94V18.8469C0 15.0231 2.70002 11.7328 6.44659 10.9909L30.89 6.15048C35.8347 5.17131 40.4405 8.95992 40.4405 14.0065V116.246C40.4405 123.422 41.9762 129.657 45.0476 134.954C48.1191 140.25 52.2996 144.35 57.5893 147.254C63.0496 149.988 69.0218 151.354 75.506 151.354C82.3314 151.354 88.3036 149.988 93.4226 147.254C98.5417 144.35 102.552 140.335 105.452 135.21C108.524 129.914 110.06 123.678 110.06 116.503V18.8469C110.06 15.0232 112.76 11.7328 116.506 10.9909L140.95 6.15048C145.894 5.17131 150.5 8.95992 150.5 14.0065V114.196C150.5 128.547 147.343 141.275 141.03 152.379C134.716 163.484 125.929 172.197 114.667 178.518C103.405 184.839 90.3512 188 75.506 188Z" fill="#DB0000"></path><path d="M312.951 55.4867C307.993 56.5007 303.352 52.7074 303.352 47.6405V32.7856C303.352 28.9805 306.026 25.7009 309.75 24.9394L332.913 20.2025C337.872 19.1885 342.512 22.9818 342.512 28.0487V42.9037C342.512 46.7088 339.838 49.9884 336.115 50.7499L312.951 55.4867Z" fill="#DB0000"></path></svg>